<?xml version="1.0" encoding="UTF-8" standalone="no"?><!-- Generator: Gravit.io --><svg xmlns="http://www.w3.org/2000/svg" xmlns:xlink="http://www.w3.org/1999/xlink" style="isolation:isolate" viewBox="0 0 256 256" width="256px" height="256px"><defs><clipPath id="_clipPath_cdxJ60WmxVmuBbPc1TJEJg9uhC0ViGjF"><rect width="256" height="256"/></clipPath></defs><g clip-path="url(#_clipPath_cdxJ60WmxVmuBbPc1TJEJg9uhC0ViGjF)"><g><path d=" M 128 247.04 L 76.48 217.28 L 24.96 187.52 L 24.96 128 L 24.96 68.48 L 76.48 38.72 L 128 8.96 L 179.52 38.72 L 231.04 68.48 L 231.04 128 L 231.04 187.52 L 179.52 217.28 L 128 247.04 Z " fill="rgb(0,0,0)" fill-opacity="0.9"/><linearGradient id="_lgradient_1" x1="0.33333333333333337" y1="0" x2="0.6666666666666667" y2="0.8333322765620984" gradientTransform="matrix(247.318,0,0,214.183,4.341,8.96)" gradientUnits="userSpaceOnUse"><stop offset="0%" stop-opacity="1" style="stop-color:#01fdff"/><stop offset="85%" stop-opacity="1" style="stop-color:#da66ff"/></linearGradient><path d=" M 86.78 8.96 L 66.171 44.657 L 86.78 80.355 L 128 80.355 L 86.78 8.96 L 86.78 8.96 Z  M 169.22 80.355 L 210.439 80.355 L 169.22 8.96 L 128 8.96 L 169.22 80.355 L 169.22 80.355 Z  M 251.659 151.748 L 231.049 116.052 L 189.829 116.052 L 169.22 151.748 L 169.22 151.748 L 251.659 151.748 L 251.659 151.748 Z  M 148.61 187.446 L 128 223.143 L 210.439 223.143 L 231.049 187.446 L 148.61 187.446 L 148.61 187.446 Z  M 45.561 223.143 L 86.78 223.143 L 107.39 187.446 L 86.78 151.748 L 45.561 223.143 L 45.561 223.143 Z  M 66.171 116.052 L 45.561 80.355 L 4.341 151.748 L 24.951 187.446 L 66.171 116.052 L 66.171 116.052 Z  M 128 80.355 L 169.22 151.748 L 169.22 151.748 L 86.78 151.748 L 128 80.355 Z " fill-rule="evenodd" fill="url(#_lgradient_1)"/></g></g></svg>