<?xml version="1.0" encoding="UTF-8" standalone="no"?><!-- Generator: Gravit.io --><svg xmlns="http://www.w3.org/2000/svg" xmlns:xlink="http://www.w3.org/1999/xlink" style="isolation:isolate" viewBox="0 0 256 256" width="256pt" height="256pt"><defs><clipPath id="_clipPath_hra3htDlTy3nnB0AD895QUny0R74k99B"><rect width="256" height="256"/></clipPath></defs><g clip-path="url(#_clipPath_hra3htDlTy3nnB0AD895QUny0R74k99B)"><linearGradient id="_lgradient_0" x1="0.33333333333333337" y1="0" x2="0.6666666666666666" y2="0.9622504486493768" gradientTransform="matrix(230.4,0,0,199.532,12.8,28.234)" gradientUnits="userSpaceOnUse"><stop offset="0%" stop-opacity="1" style="stop-color:#01fdff"/><stop offset="85%" stop-opacity="1" style="stop-color:#d15af9"/></linearGradient><path d=" M 89.6 28.234 L 70.4 61.489 L 89.6 94.745 L 128 94.745 L 89.6 28.234 L 89.6 28.234 Z  M 166.4 94.745 L 204.8 94.745 L 166.4 28.234 L 128 28.234 L 166.4 94.745 L 166.4 94.745 Z  M 243.2 161.255 L 224 128 L 185.6 128 L 166.4 161.255 L 166.4 161.255 L 243.2 161.255 L 243.2 161.255 Z  M 147.2 194.511 L 128 227.766 L 204.8 227.766 L 224 194.511 L 147.2 194.511 L 147.2 194.511 Z  M 51.2 227.766 L 89.6 227.766 L 108.8 194.511 L 89.6 161.255 L 51.2 227.766 L 51.2 227.766 Z  M 70.4 128 L 51.2 94.745 L 12.8 161.255 L 32 194.511 L 70.4 128 L 70.4 128 Z  M 128 94.745 L 166.4 161.255 L 166.4 161.255 L 89.6 161.255 L 128 94.745 Z " fill-rule="evenodd" fill="url(#_lgradient_0)"/></g></svg>